<svg width="34" height="34" viewBox="0 0 34 34" fill="none" xmlns="http://www.w3.org/2000/svg">
<path fill-rule="evenodd" clip-rule="evenodd" d="M17.0007 0.744141C7.79232 0.744141 0.333984 8.20247 0.333984 17.4108C0.333984 24.7858 5.10482 31.015 11.7298 33.2233C12.5632 33.3691 12.8757 32.8691 12.8757 32.4316C12.8757 32.0358 12.8548 30.7233 12.8548 29.3275C8.66732 30.0983 7.58398 28.3066 7.25065 27.3691C7.06315 26.89 6.25065 25.4108 5.54232 25.015C4.95898 24.7025 4.12565 23.9316 5.52148 23.9108C6.83398 23.89 7.77148 25.1191 8.08398 25.6191C9.58398 28.14 11.9798 27.4316 12.9382 26.9941C13.084 25.9108 13.5215 25.1816 14.0007 24.765C10.2923 24.3483 6.41732 22.9108 6.41732 16.5358C6.41732 14.7233 7.06315 13.2233 8.12565 12.0566C7.95898 11.64 7.37565 9.93164 8.29232 7.63997C8.29232 7.63997 9.68815 7.20247 12.8757 9.34831C14.209 8.97331 15.6257 8.78581 17.0423 8.78581C18.459 8.78581 19.8757 8.97331 21.209 9.34831C24.3965 7.18164 25.7923 7.63997 25.7923 7.63997C26.709 9.93164 26.1257 11.64 25.959 12.0566C27.0215 13.2233 27.6673 14.7025 27.6673 16.5358C27.6673 22.9316 23.7715 24.3483 20.0632 24.765C20.6673 25.2858 21.1882 26.2858 21.1882 27.8483C21.1882 30.0775 21.1673 31.8691 21.1673 32.4316C21.1673 32.8691 21.4798 33.39 22.3132 33.2233C25.6218 32.1063 28.4968 29.9799 30.5336 27.1434C32.5704 24.3068 33.6664 20.9029 33.6673 17.4108C33.6673 8.20247 26.209 0.744141 17.0007 0.744141Z" fill="#0C0C14"/>
</svg>
