<svg width="34" height="34" viewBox="0 0 34 34" fill="none" xmlns="http://www.w3.org/2000/svg">
<path fill-rule="evenodd" clip-rule="evenodd" d="M16.9999 0.744141C7.79158 0.744141 0.333252 8.20247 0.333252 17.4108C0.333252 24.7858 5.10408 31.015 11.7291 33.2233C12.5624 33.3691 12.8749 32.8691 12.8749 32.4316C12.8749 32.0358 12.8541 30.7233 12.8541 29.3275C8.66659 30.0983 7.58325 28.3066 7.24992 27.3691C7.06242 26.89 6.24992 25.4108 5.54158 25.015C4.95825 24.7025 4.12492 23.9316 5.52075 23.9108C6.83325 23.89 7.77075 25.1191 8.08325 25.6191C9.58325 28.14 11.9791 27.4316 12.9374 26.9941C13.0833 25.9108 13.5208 25.1816 13.9999 24.765C10.2916 24.3483 6.41659 22.9108 6.41659 16.5358C6.41659 14.7233 7.06242 13.2233 8.12492 12.0566C7.95825 11.64 7.37492 9.93164 8.29158 7.63997C8.29158 7.63997 9.68742 7.20247 12.8749 9.34831C14.2083 8.97331 15.6249 8.78581 17.0416 8.78581C18.4583 8.78581 19.8749 8.97331 21.2083 9.34831C24.3958 7.18164 25.7916 7.63997 25.7916 7.63997C26.7083 9.93164 26.1249 11.64 25.9583 12.0566C27.0208 13.2233 27.6666 14.7025 27.6666 16.5358C27.6666 22.9316 23.7708 24.3483 20.0624 24.765C20.6666 25.2858 21.1874 26.2858 21.1874 27.8483C21.1874 30.0775 21.1666 31.8691 21.1666 32.4316C21.1666 32.8691 21.4791 33.39 22.3124 33.2233C25.6211 32.1063 28.4961 29.9799 30.5329 27.1434C32.5697 24.3068 33.6657 20.9029 33.6666 17.4108C33.6666 8.20247 26.2083 0.744141 16.9999 0.744141Z" fill="#FCF7F8"/>
</svg>
