<svg width="25" height="25" viewBox="0 0 5 5" fill="none" xmlns="http://www.w3.org/2000/svg">
<path d="M2.7346 3.74495C3.46876 3.74495 4.06392 3.14979 4.06392 2.41563C4.06392 1.68146 3.46876 1.0863 2.7346 1.0863C2.00043 1.0863 1.40527 1.68146 1.40527 2.41563C1.40527 3.14979 2.00043 3.74495 2.7346 3.74495Z" stroke="#FCF7F8" stroke-width="0.306767" stroke-linecap="round" stroke-linejoin="round"/>
<path d="M4.19477 3.8758L4.16819 3.84922M4.16819 0.981972L4.19477 0.955385L4.16819 0.981972ZM1.27435 3.8758L1.30094 3.84922L1.27435 3.8758ZM2.73456 0.386844V0.370483V0.386844ZM2.73456 4.46071V4.44434V4.46071ZM0.705814 2.41559H0.689453H0.705814ZM4.77967 2.41559H4.76331H4.77967ZM1.30094 0.981972L1.27435 0.955385L1.30094 0.981972Z" stroke="#FCF7F8" stroke-width="0.409022" stroke-linecap="round" stroke-linejoin="round"/>
</svg>
