<svg width="34" height="28" viewBox="0 0 34 28" fill="none" xmlns="http://www.w3.org/2000/svg">
<path d="M30.254 7.19989C30.2743 7.49375 30.2743 7.7876 30.2743 8.08417C30.2743 17.1207 23.3951 27.5425 10.816 27.5425V27.5371C7.10013 27.5425 3.46143 26.4781 0.333252 24.4712C0.873573 24.5362 1.4166 24.5687 1.96099 24.5701C5.04041 24.5728 8.03181 23.5395 10.4545 21.6369C7.52805 21.5814 4.96187 19.6733 4.06539 16.8877C5.09051 17.0855 6.14678 17.0448 7.15294 16.7699C3.96248 16.1253 1.66713 13.3222 1.66713 10.0667C1.66713 10.0369 1.66713 10.0085 1.66713 9.98003C2.61777 10.5095 3.68216 10.8034 4.77093 10.8359C1.76598 8.82762 0.839718 4.83006 2.65433 1.70459C6.12647 5.97706 11.2494 8.57439 16.7487 8.84929C16.1976 6.47404 16.9505 3.98505 18.7272 2.31533C21.4816 -0.273875 25.8137 -0.141164 28.4029 2.6119C29.9344 2.30992 31.4024 1.74793 32.7457 0.951665C32.2352 2.53471 31.1668 3.87942 29.7394 4.73391C31.095 4.57412 32.4194 4.21119 33.6666 3.65733C32.7485 5.03319 31.592 6.23164 30.254 7.19989Z" fill="#FCF7F8"/>
</svg>
