<svg width="34" height="28" viewBox="0 0 34 28" fill="none" xmlns="http://www.w3.org/2000/svg">
<path d="M30.2548 7.19989C30.2751 7.49375 30.2751 7.7876 30.2751 8.08417C30.2751 17.1207 23.3958 27.5425 10.8168 27.5425V27.5371C7.10086 27.5425 3.46216 26.4781 0.333984 24.4712C0.874305 24.5362 1.41733 24.5687 1.96172 24.5701C5.04114 24.5728 8.03254 23.5395 10.4552 21.6369C7.52878 21.5814 4.9626 19.6733 4.06613 16.8877C5.09125 17.0855 6.14751 17.0448 7.15368 16.7699C3.96321 16.1253 1.66786 13.3222 1.66786 10.0667C1.66786 10.0369 1.66786 10.0085 1.66786 9.98003C2.6185 10.5095 3.68289 10.8034 4.77166 10.8359C1.76672 8.82762 0.840451 4.83006 2.65506 1.70459C6.1272 5.97706 11.2501 8.57439 16.7495 8.84929C16.1983 6.47404 16.9512 3.98505 18.7279 2.31533C21.4823 -0.273875 25.8144 -0.141164 28.4036 2.6119C29.9352 2.30992 31.4031 1.74793 32.7465 0.951665C32.2359 2.53471 31.1675 3.87942 29.7402 4.73391C31.0957 4.57412 32.4201 4.21119 33.6673 3.65733C32.7492 5.03319 31.5927 6.23164 30.2548 7.19989Z" fill="#0C0C14"/>
</svg>
